<svg width="480" height="480" viewBox="0 0 480 480" fill="none" xmlns="http://www.w3.org/2000/svg">
<path d="M248 160C248 164.418 244.418 168 240 168C235.582 168 232 164.418 232 160C232 155.582 235.582 152 240 152C244.418 152 248 155.582 248 160Z" fill="#666666"/>
<path d="M371.289 275.762L301.406 252.465L294.047 228.352C294.602 228.078 295.238 227.879 295.785 227.602C293.945 204.047 277.496 184.566 255.488 178.215C253.52 179.887 251.305 181.273 248.863 182.246C250.961 190.441 257 197.223 265.305 199.992L266.535 200.398L261.473 215.574L260.238 215.168C251.902 212.391 244.938 207.137 240 200.398C235.062 207.137 228.098 212.391 219.762 215.168L218.535 215.574L213.473 200.398L214.695 200C223 197.23 229.039 190.457 231.137 182.258C228.695 181.281 226.48 179.895 224.512 178.223C202.504 184.566 186.055 204.047 184.215 227.609C184.762 227.887 185.398 228.09 185.953 228.359L178.594 252.473L108.711 275.77C101.121 278.297 96 285.398 96 293.398C96 303.672 104.328 312 114.602 312H116.727C118.895 312 121.047 311.625 123.078 310.879L165.473 295.465L136.91 389.016C136.305 390.992 136 393.047 136 395.121C136 406.656 145.352 416 156.879 416H208L213.551 480H266.449L272 416H323.121C334.656 416 344 406.648 344 395.121C344 393.055 343.695 391 343.09 389.023L314.527 295.473L356.922 310.887C358.961 311.625 361.113 312 363.281 312H365.406C375.672 312 384 303.672 384 293.398C384 285.398 378.879 278.297 371.289 275.762V275.762ZM216.816 237.895C219.465 248.273 228.809 256 240 256C251.191 256 260.535 248.273 263.184 237.895C269 236.91 274.559 235.617 279.809 233.953C278.762 255.078 261.383 272 240 272C218.617 272 201.238 255.078 200.199 233.953C205.441 235.617 211.008 236.91 216.816 237.895V237.895ZM288 344C288 370.473 266.473 392 240 392C213.527 392 192 370.473 192 344V312H288V344Z" fill="#666666"/>
<path d="M240 376C257.648 376 272 361.648 272 344V328H208V344C208 361.648 222.352 376 240 376Z" fill="#666666"/>
<path d="M169.434 217.742C174.488 192.68 192.633 172.352 216.375 164.062C216.145 162.742 216 161.391 216 160C216 146.77 226.77 136 240 136C253.23 136 264 146.77 264 160C264 161.391 263.855 162.742 263.633 164.062C287.375 172.352 305.52 192.68 310.574 217.742C321.23 208.656 327.625 197.375 327.945 184.977C333.273 184.352 338.641 184 344 184V168C337.625 168 331.246 168.441 324.91 169.215C322.848 164.297 319.762 159.602 315.719 155.246C324.992 153.137 334.496 152 344 152V136C333.184 136 322.359 137.273 311.809 139.695C311.871 138.465 312 137.223 312 136C312 123.238 308.633 111.273 302.785 100.871C342 83.7422 335.609 0 335.609 0C276.734 0 261.215 43.2656 257.105 66.1367C251.609 64.793 245.902 64 240 64C233.832 64 227.871 64.8633 222.152 66.3281C218.137 43.4961 202.832 0 144.383 0C144.383 0 138.008 84.1445 177.129 101.008C171.336 111.375 168 123.305 168 136C168 137.223 168.129 138.465 168.191 139.695C157.641 137.273 146.816 136 136 136V152C145.504 152 155.008 153.137 164.289 155.246C160.246 159.609 157.152 164.297 155.098 169.215C148.754 168.441 142.375 168 136 168V184C141.359 184 146.727 184.352 152.062 184.969C152.383 197.375 158.777 208.648 169.434 217.742ZM264 112C268.414 112 272 115.586 272 120C272 124.414 268.414 128 264 128C259.586 128 256 124.414 256 120C256 115.586 259.586 112 264 112ZM216 112C220.414 112 224 115.586 224 120C224 124.414 220.414 128 216 128C211.586 128 208 124.414 208 120C208 115.586 211.586 112 216 112Z" fill="#666666"/>
</svg>
