<svg height="480pt" viewBox="-96 0 480 480" width="480pt" xmlns="http://www.w3.org/2000/svg"><path d="m152 160c0 4.417969-3.582031 8-8 8s-8-3.582031-8-8 3.582031-8 8-8 8 3.582031 8 8zm0 0"/><path d="m275.289062 275.761719-69.882812-23.296875-7.359375-24.113282c.554687-.273437 1.191406-.472656 1.738281-.75-1.839844-23.554687-18.289062-43.035156-40.296875-49.386718-1.96875 1.671875-4.183593 3.058594-6.625 4.03125 2.097657 8.195312 8.136719 14.976562 16.441407 17.746094l1.230468.40625-5.0625 15.175781-1.234375-.40625c-8.335937-2.777344-15.300781-8.03125-20.238281-14.769531-4.9375 6.738281-11.902344 11.992187-20.238281 14.769531l-1.226563.40625-5.0625-15.175781 1.222656-.398438c8.304688-2.769531 14.34375-9.542969 16.441407-17.742188-2.441407-.976562-4.65625-2.363281-6.625-4.035156-22.007813 6.34375-38.457031 25.824219-40.296875 49.386719.546875.277344 1.183594.480469 1.738281.75l-7.359375 24.113281-69.882812 23.296875c-7.589844 2.527344-12.710938 9.628907-12.710938 17.628907 0 10.273437 8.328125 18.601562 18.601562 18.601562h2.125c2.167969 0 4.320313-.375 6.351563-1.121094l42.394531-15.414062-28.5625 93.550781c-.605468 1.976563-.910156 4.03125-.910156 6.105469 0 11.535156 9.351562 20.878906 20.878906 20.878906h51.121094l5.550781 64h52.898438l5.550781-64h51.121094c11.535156 0 20.878906-9.351562 20.878906-20.878906 0-2.066406-.304688-4.121094-.910156-6.097656l-28.5625-93.550782 42.394531 15.414063c2.039063.738281 4.191406 1.113281 6.359375 1.113281h2.125c10.265625 0 18.59375-8.328125 18.59375-18.601562 0-8-5.121094-15.101563-12.710938-17.636719zm-154.472656-37.867188c2.648438 10.378907 11.992188 18.105469 23.183594 18.105469s20.535156-7.726562 23.183594-18.105469c5.816406-.984375 11.375-2.277343 16.625-3.941406-1.046875 21.125-18.425782 38.046875-39.808594 38.046875s-38.761719-16.921875-39.800781-38.046875c5.242187 1.664063 10.808593 2.957031 16.617187 3.941406zm71.183594 106.105469c0 26.472656-21.527344 48-48 48s-48-21.527344-48-48v-32h96zm0 0"/><path d="m144 376c17.648438 0 32-14.351562 32-32v-16h-64v16c0 17.648438 14.351562 32 32 32zm0 0"/><path d="m73.433594 217.742188c5.054687-25.0625 23.199218-45.390626 46.941406-53.679688-.230469-1.320312-.375-2.671875-.375-4.0625 0-13.230469 10.769531-24 24-24s24 10.769531 24 24c0 1.390625-.144531 2.742188-.367188 4.0625 23.742188 8.289062 41.886719 28.617188 46.941407 53.679688 10.65625-9.085938 17.050781-20.367188 17.371093-32.765626 5.328126-.625 10.695313-.976562 16.054688-.976562v-16c-6.375 0-12.753906.441406-19.089844 1.214844-2.0625-4.917969-5.148437-9.613282-9.191406-13.96875 9.273438-2.109375 18.777344-3.246094 28.28125-3.246094v-16c-10.816406 0-21.640625 1.273438-32.191406 3.695312.0625-1.230468.191406-2.472656.191406-3.695312 0-12.761719-3.367188-24.726562-9.214844-35.128906 39.214844-17.128906 32.824219-100.871094 32.824219-100.871094-58.875 0-74.394531 43.265625-78.503906 66.136719-5.496094-1.34375-11.203125-2.136719-17.105469-2.136719-6.167969 0-12.128906.863281-17.847656 2.328125-4.015625-22.832031-19.320313-66.328125-77.769532-66.328125 0 0-6.375 84.144531 32.746094 101.007812-5.792968 10.367188-9.128906 22.296876-9.128906 34.992188 0 1.222656.128906 2.464844.191406 3.695312-10.550781-2.421874-21.375-3.695312-32.191406-3.695312v16c9.503906 0 19.007812 1.136719 28.289062 3.246094-4.042968 4.363281-7.136718 9.050781-9.191406 13.96875-6.34375-.773438-12.722656-1.214844-19.097656-1.214844v16c5.359375 0 10.726562.351562 16.0625.96875.320312 12.40625 6.714844 23.679688 17.371094 32.773438zm94.566406-105.742188c4.414062 0 8 3.585938 8 8s-3.585938 8-8 8-8-3.585938-8-8 3.585938-8 8-8zm-48 0c4.414062 0 8 3.585938 8 8s-3.585938 8-8 8-8-3.585938-8-8 3.585938-8 8-8zm0 0"/></svg>