<svg width="294" height="359" viewBox="0 0 294 359" fill="none" xmlns="http://www.w3.org/2000/svg">
<path d="M194.228 134.937C191.917 132.627 188.696 131.302 185.39 131.302C182.037 131.302 178.9 132.592 176.553 134.937L132.791 178.698L117.679 163.584C115.319 161.231 112.183 159.935 108.85 159.935C105.514 159.935 102.376 161.233 100.013 163.594C97.652 165.956 96.351 169.096 96.351 172.434C96.351 175.775 97.653 178.915 100.012 181.273L123.961 205.224C126.302 207.56 129.438 208.846 132.789 208.846C132.79 208.846 132.79 208.846 132.79 208.846C136.143 208.846 139.278 207.559 141.63 205.215L194.23 152.616C199.102 147.744 199.103 139.815 194.228 134.937Z" fill="#666666"/>
<path d="M292.957 73.791C292.759 71.514 291.38 69.508 289.325 68.509L149.869 0.654996C148.074 -0.219004 145.976 -0.219004 144.181 0.654996L4.726 68.508C2.671 69.508 1.291 71.513 1.094 73.79C0.916 75.836 -3.083 124.59 12.323 184.137C21.398 219.214 35.372 250.681 53.856 277.664C77.039 311.505 107.378 338.306 144.033 357.321C144.971 357.808 145.999 358.051 147.026 358.051C148.053 358.051 149.081 357.808 150.019 357.321C186.673 338.306 217.014 311.506 240.197 277.664C258.681 250.681 272.655 219.214 281.729 184.137C297.134 124.59 293.135 75.837 292.957 73.791ZM147.025 251.701C101.437 251.701 64.349 214.613 64.349 169.025C64.349 123.437 101.437 86.349 147.025 86.349C192.613 86.349 229.701 123.437 229.701 169.025C229.701 214.613 192.613 251.701 147.025 251.701Z" fill="#666666"/>
</svg>
